<?xml version="1.0" encoding="utf-8"?>
<!-- Generator: Adobe Illustrator 23.0.1, SVG Export Plug-In . SVG Version: 6.00 Build 0)  -->
<svg version="1.1" id="Layer_1" xmlns="http://www.w3.org/2000/svg" xmlns:xlink="http://www.w3.org/1999/xlink" x="0px" y="0px"
	 viewBox="0 0 50 45.8" style="enable-background:new 0 0 50 45.8;" xml:space="preserve">
<style type="text/css">
	.st0{fill:#274693;}
</style>
<title>Vector Smart Object</title>
<path class="st0" d="M22.9,45.8C10.3,45.9,0,35.6,0,22.9S10.2,0,22.9,0c4.4,0,8.7,1.3,12.4,3.6c0.7,0.5,0.9,1.4,0.5,2.2
	c-0.5,0.7-1.4,0.9-2.2,0.5c-9.2-5.9-21.4-3.2-27.3,6s-3.2,21.4,6,27.3c9.2,5.9,21.4,3.2,27.3-6c2-3.2,3.1-6.9,3.1-10.7
	c0-0.6,0-1.3-0.1-1.9c-0.1-0.9,0.5-1.6,1.4-1.7c0,0,0,0,0,0c0.9-0.1,1.6,0.5,1.7,1.4c0.1,0.7,0.1,1.5,0.1,2.2
	C45.8,35.6,35.6,45.8,22.9,45.8z"/>
<path class="st0" d="M25.5,28.1c-0.4,0-0.8-0.2-1.1-0.5L15,18.3c-0.6-0.6-0.6-1.6,0-2.2c0,0,0,0,0,0c0.6-0.6,1.6-0.6,2.2,0
	c0,0,0,0,0,0l8.3,8.3L47.3,2.6c0.6-0.6,1.6-0.6,2.2,0s0.6,1.6,0,2.2l0,0L26.6,27.7C26.3,28,25.9,28.1,25.5,28.1z"/>
</svg>
