<svg xmlns="http://www.w3.org/2000/svg" viewBox="0 0 678.2 334.41"><title>decoration-img</title><circle cx="360.22" cy="15" r="15" fill="#bababa"/><circle cx="360.22" cy="58.71" r="15" fill="#bababa"/><circle cx="360.22" cy="101.7" r="15" fill="#bababa"/><circle cx="360.22" cy="145.41" r="15" fill="#bababa"/><circle cx="360.22" cy="188.99" r="15" fill="#bababa"/><circle cx="360.22" cy="232.7" r="15" fill="#bababa"/><circle cx="360.22" cy="275.7" r="15" fill="#bababa"/><circle cx="360.22" cy="319.41" r="15" fill="#bababa"/><circle cx="403.36" cy="15" r="15" fill="#bababa"/><circle cx="403.36" cy="58.71" r="15" fill="#bababa"/><circle cx="403.36" cy="101.7" r="15" fill="#bababa"/><circle cx="403.36" cy="145.41" r="15" fill="#bababa"/><circle cx="403.36" cy="188.99" r="15" fill="#bababa"/><circle cx="403.36" cy="232.7" r="15" fill="#bababa"/><circle cx="403.36" cy="275.7" r="15" fill="#bababa"/><circle cx="403.36" cy="319.41" r="15" fill="#bababa"/><circle cx="446.5" cy="15" r="15" fill="#bababa"/><circle cx="446.5" cy="58.71" r="15" fill="#bababa"/><circle cx="446.5" cy="101.7" r="15" fill="#bababa"/><circle cx="446.5" cy="145.41" r="15" fill="#bababa"/><circle cx="446.5" cy="188.99" r="15" fill="#bababa"/><circle cx="446.5" cy="232.7" r="15" fill="#bababa"/><circle cx="446.5" cy="275.7" r="15" fill="#bababa"/><circle cx="446.5" cy="319.41" r="15" fill="#bababa"/><circle cx="489.64" cy="15" r="15" fill="#bababa"/><circle cx="489.64" cy="58.71" r="15" fill="#bababa"/><circle cx="489.64" cy="101.7" r="15" fill="#bababa"/><circle cx="489.64" cy="145.41" r="15" fill="#bababa"/><circle cx="489.64" cy="188.99" r="15" fill="#bababa"/><circle cx="489.64" cy="232.7" r="15" fill="#bababa"/><circle cx="489.64" cy="275.7" r="15" fill="#bababa"/><circle cx="489.64" cy="319.41" r="15" fill="#bababa"/><circle cx="533.78" cy="15" r="15" fill="#bababa"/><circle cx="533.78" cy="58.71" r="15" fill="#bababa"/><circle cx="533.78" cy="101.7" r="15" fill="#bababa"/><circle cx="533.78" cy="145.41" r="15" fill="#bababa"/><circle cx="533.78" cy="188.99" r="15" fill="#bababa"/><circle cx="533.78" cy="232.7" r="15" fill="#bababa"/><circle cx="533.78" cy="275.7" r="15" fill="#bababa"/><circle cx="533.78" cy="319.41" r="15" fill="#bababa"/><circle cx="576.92" cy="15" r="15" fill="#bababa"/><circle cx="576.92" cy="58.71" r="15" fill="#bababa"/><circle cx="576.92" cy="101.7" r="15" fill="#bababa"/><circle cx="576.92" cy="145.41" r="15" fill="#bababa"/><circle cx="576.92" cy="188.99" r="15" fill="#bababa"/><circle cx="576.92" cy="232.7" r="15" fill="#bababa"/><circle cx="576.92" cy="275.7" r="15" fill="#bababa"/><circle cx="576.92" cy="319.41" r="15" fill="#bababa"/><circle cx="620.06" cy="15" r="15" fill="#bababa"/><circle cx="620.06" cy="58.71" r="15" fill="#bababa"/><circle cx="620.06" cy="101.7" r="15" fill="#bababa"/><circle cx="620.06" cy="145.41" r="15" fill="#bababa"/><circle cx="620.06" cy="188.99" r="15" fill="#bababa"/><circle cx="620.06" cy="232.7" r="15" fill="#bababa"/><circle cx="620.06" cy="275.7" r="15" fill="#bababa"/><circle cx="620.06" cy="319.41" r="15" fill="#bababa"/><circle cx="663.2" cy="15" r="15" fill="#bababa"/><circle cx="663.2" cy="58.71" r="15" fill="#bababa"/><circle cx="663.2" cy="101.7" r="15" fill="#bababa"/><circle cx="663.2" cy="145.41" r="15" fill="#bababa"/><circle cx="663.2" cy="188.99" r="15" fill="#bababa"/><circle cx="663.2" cy="232.7" r="15" fill="#bababa"/><circle cx="663.2" cy="275.7" r="15" fill="#bababa"/><circle cx="663.2" cy="319.41" r="15" fill="#bababa"/><circle cx="15" cy="15" r="15" fill="#bababa"/><circle cx="15" cy="58.71" r="15" fill="#bababa"/><circle cx="15" cy="101.7" r="15" fill="#bababa"/><circle cx="15" cy="145.41" r="15" fill="#bababa"/><circle cx="15" cy="188.99" r="15" fill="#bababa"/><circle cx="15" cy="232.7" r="15" fill="#bababa"/><circle cx="15" cy="275.7" r="15" fill="#bababa"/><circle cx="15" cy="319.41" r="15" fill="#bababa"/><circle cx="58.14" cy="15" r="15" fill="#bababa"/><circle cx="58.14" cy="58.71" r="15" fill="#bababa"/><circle cx="58.14" cy="101.7" r="15" fill="#bababa"/><circle cx="58.14" cy="145.41" r="15" fill="#bababa"/><circle cx="58.14" cy="188.99" r="15" fill="#bababa"/><circle cx="58.14" cy="232.7" r="15" fill="#bababa"/><circle cx="58.14" cy="275.7" r="15" fill="#bababa"/><circle cx="58.14" cy="319.41" r="15" fill="#bababa"/><circle cx="101.28" cy="15" r="15" fill="#bababa"/><circle cx="101.28" cy="58.71" r="15" fill="#bababa"/><circle cx="101.28" cy="101.7" r="15" fill="#bababa"/><circle cx="101.28" cy="145.41" r="15" fill="#bababa"/><circle cx="101.28" cy="188.99" r="15" fill="#bababa"/><circle cx="101.28" cy="232.7" r="15" fill="#bababa"/><circle cx="101.28" cy="275.7" r="15" fill="#bababa"/><circle cx="101.28" cy="319.41" r="15" fill="#bababa"/><circle cx="144.42" cy="15" r="15" fill="#bababa"/><circle cx="144.42" cy="58.71" r="15" fill="#bababa"/><circle cx="144.42" cy="101.7" r="15" fill="#bababa"/><circle cx="144.42" cy="145.41" r="15" fill="#bababa"/><circle cx="144.42" cy="188.99" r="15" fill="#bababa"/><circle cx="144.42" cy="232.7" r="15" fill="#bababa"/><circle cx="144.42" cy="275.7" r="15" fill="#bababa"/><circle cx="144.42" cy="319.41" r="15" fill="#bababa"/><circle cx="188.55" cy="15" r="15" fill="#bababa"/><circle cx="188.55" cy="58.71" r="15" fill="#bababa"/><circle cx="188.55" cy="101.7" r="15" fill="#bababa"/><circle cx="188.55" cy="145.41" r="15" fill="#bababa"/><circle cx="188.55" cy="188.99" r="15" fill="#bababa"/><circle cx="188.55" cy="232.7" r="15" fill="#bababa"/><circle cx="188.55" cy="275.7" r="15" fill="#bababa"/><circle cx="188.55" cy="319.41" r="15" fill="#bababa"/><circle cx="231.69" cy="15" r="15" fill="#bababa"/><circle cx="231.69" cy="58.71" r="15" fill="#bababa"/><circle cx="231.69" cy="101.7" r="15" fill="#bababa"/><circle cx="231.69" cy="145.41" r="15" fill="#bababa"/><circle cx="231.69" cy="188.99" r="15" fill="#bababa"/><circle cx="231.69" cy="232.7" r="15" fill="#bababa"/><circle cx="231.69" cy="275.7" r="15" fill="#bababa"/><circle cx="231.69" cy="319.41" r="15" fill="#bababa"/><circle cx="274.83" cy="15" r="15" fill="#bababa"/><circle cx="274.83" cy="58.71" r="15" fill="#bababa"/><circle cx="274.83" cy="101.7" r="15" fill="#bababa"/><circle cx="274.83" cy="145.41" r="15" fill="#bababa"/><circle cx="274.83" cy="188.99" r="15" fill="#bababa"/><circle cx="274.83" cy="232.7" r="15" fill="#bababa"/><circle cx="274.83" cy="275.7" r="15" fill="#bababa"/><circle cx="274.83" cy="319.41" r="15" fill="#bababa"/><circle cx="317.97" cy="15" r="15" fill="#bababa"/><circle cx="317.97" cy="58.71" r="15" fill="#bababa"/><circle cx="317.97" cy="101.7" r="15" fill="#bababa"/><circle cx="317.97" cy="145.41" r="15" fill="#bababa"/><circle cx="317.97" cy="188.99" r="15" fill="#bababa"/><circle cx="317.97" cy="232.7" r="15" fill="#bababa"/><circle cx="317.97" cy="275.7" r="15" fill="#bababa"/><circle cx="317.97" cy="319.41" r="15" fill="#bababa"/></svg>