<svg xmlns="http://www.w3.org/2000/svg" viewBox="0 0 173 74.85"><title>logo</title><polygon points="9.4 5.8 11.2 6.9 12.6 4.2 10.3 2.9 9.2 5 7.3 4.1 6 6.5 8.4 7.8 9.4 5.8" fill="#274693"/><path d="M11.4,11.1c-.5-.4-1-.7-1.6-1.1L8.6,9.3c-.2.4-.4.9-.6,1.4a9.75,9.75,0,0,1-.6,1.4l.5.3a21.54,21.54,0,0,0-1.1,2.5A7.61,7.61,0,0,0,6.5,17a2.44,2.44,0,0,0,.6,1.8,1.86,1.86,0,0,0,1.6.7,4.42,4.42,0,0,0,2.4-.7,4.26,4.26,0,0,0,1.8-1.7,13,13,0,0,0,.3-1.3,7.57,7.57,0,0,0,.1-1.5,2.86,2.86,0,0,0-.4-1.7A10.4,10.4,0,0,0,11.4,11.1Zm-.9,4.8a4.43,4.43,0,0,1-1.5.3,1.14,1.14,0,0,1-.8-.3.91.91,0,0,1-.3-.7,4.26,4.26,0,0,1,.8-2.1,10.92,10.92,0,0,1,1.7,1.3c.6.5.9.8.9,1S11.1,15.7,10.5,15.9Z" fill="#274693"/><path d="M20.3,7.1l-.9,4a6.56,6.56,0,0,1,1.7,1.6,7,7,0,0,1,1,3H17.7a1.88,1.88,0,0,1-.8-.2,1.28,1.28,0,0,1-.5-.7h-.5c-.1.4-.1.9-.2,1.3a4.87,4.87,0,0,0-.1,1.2,1.81,1.81,0,0,0,.5,1.4,2.23,2.23,0,0,0,1.3.4h5.8V15a15.61,15.61,0,0,0-.6-4.8A7,7,0,0,0,20.3,7.1Z" fill="#274693"/><path d="M32.6,10.2c-.8,0-1.5.6-2.2,1.9a8.08,8.08,0,0,0-.9,3.7,3.07,3.07,0,0,0,.7,2.2,2.79,2.79,0,0,0,2,.8,3.44,3.44,0,0,0,.9-.1,10,10,0,0,1-3,2.6,4.42,4.42,0,0,1-2.4.7,3.81,3.81,0,0,1-1.6-.3,12.94,12.94,0,0,1-2.3-1.2l-.5.7a36,36,0,0,0,3.9,2.7,4.35,4.35,0,0,0,2.3.7c1.2,0,2.4-.7,3.7-2.1a6.38,6.38,0,0,0,1.9-4.3V15a7.39,7.39,0,0,0-.7-3.4C33.8,10.7,33.3,10.2,32.6,10.2Zm.4,5.5a2.27,2.27,0,0,1-1.3-.3,1,1,0,0,1-.5-.8,1.85,1.85,0,0,1,.2-.7.86.86,0,0,1,.6-.3q1.05,0,1.5,2.1Z" fill="#274693"/><path d="M73.7,8a5.78,5.78,0,0,0,.5-1.4A9,9,0,0,0,74.5,5,9.35,9.35,0,0,1,73,4.2c-.4-.3-.5-.5-.5-.8a1,1,0,0,1,.1-.4L72,2.7A13.33,13.33,0,0,0,71,5a3.89,3.89,0,0,0-.2,1.5l.7.5L73,15.7H68.4a9,9,0,0,0-1-3.2c-.6-1.3-1.2-2-1.6-2a2.82,2.82,0,0,0-1.7.9,7.72,7.72,0,0,0-1.9,2.7A1.8,1.8,0,0,1,61,15.3a4.84,4.84,0,0,1-1.8.3H57.6a3.71,3.71,0,0,1-1.5-.5,14.36,14.36,0,0,1-1.5-1.4,22.18,22.18,0,0,0-2.2-2.2,8.56,8.56,0,0,0-1.7-1.3,3.09,3.09,0,0,0-3.6.4A6.66,6.66,0,0,0,45.5,13a2.49,2.49,0,0,1,.8-.1h.6a5.25,5.25,0,0,1,2.3.6,13.12,13.12,0,0,1,2.9,2.3H44v-.6a15.61,15.61,0,0,0-.6-4.8A6.78,6.78,0,0,0,41,7.1l-.9,4a6.56,6.56,0,0,1,1.7,1.6,7,7,0,0,1,1,3H38.4a1.88,1.88,0,0,1-.8-.2,1.28,1.28,0,0,1-.5-.7h-.5c-.1.4-.1.9-.2,1.3a4.87,4.87,0,0,0-.1,1.2,1.81,1.81,0,0,0,.5,1.4,2.23,2.23,0,0,0,1.3.4H59.3a4.64,4.64,0,0,0,1.4-.2,3.2,3.2,0,0,0,1.8-1.5,14.86,14.86,0,0,0,2.8,1.1c.8.2,1.6.4,2.3.5v.1h7V15.6L73.2,7.7Zm-7.9,7.5a4.77,4.77,0,0,1-1.2-.4c-.2-.1-.6-.2-1-.4.2-.8.5-1.1.8-1.1s.7.3,1.1.8a1.75,1.75,0,0,1,.5,1C66.1,15.4,66,15.5,65.8,15.5Z" fill="#274693"/><path d="M78.6,8.2l-.8-4.5a20.12,20.12,0,0,0-1,2.3,3.44,3.44,0,0,0-.4,1.3,8.38,8.38,0,0,0,.2,1,32.21,32.21,0,0,1,.6,3.5l.3,3a22,22,0,0,1,.1,2.3,15.73,15.73,0,0,1-.3,2.7l.7.2a12.67,12.67,0,0,0,1-2.5,6.65,6.65,0,0,0,.3-2.1,27.15,27.15,0,0,0-.1-2.8C79.1,11.4,78.9,9.9,78.6,8.2Z" fill="#274693"/><polygon points="100.9 4.1 97.9 2.5 96.4 5.4 99.4 7 100.9 4.1" fill="#274693"/><path d="M107.3,8a5.78,5.78,0,0,0,.5-1.4,9,9,0,0,0,.3-1.6,9.35,9.35,0,0,1-1.5-.8c-.4-.3-.5-.5-.5-.8a1,1,0,0,1,.1-.4l-.6-.3a13.33,13.33,0,0,0-1,2.3,3.89,3.89,0,0,0-.2,1.5l.8.5,1.5,8.7h-4.6v-.3a12.71,12.71,0,0,0-1-5.4c-.6-1.5-1.4-2.2-2.3-2.2s-1.4.5-2,1.6a7.13,7.13,0,0,0-.9,3.6,2.48,2.48,0,0,0,.8,2,5.74,5.74,0,0,0,2.7,1.1c-1.2-.1-2.3-.2-3.2-.3-.3,0-.7-.1-1.1-.1H91.9c-.4,0-.7-.3-.9-.8a14,14,0,0,1-.4-3.7V8.6a12.62,12.62,0,0,0-.3-3,6.25,6.25,0,0,0-1-2L87.9,6.8a3.14,3.14,0,0,1,.8,1A5,5,0,0,1,89,9.7v3.6a10.49,10.49,0,0,0,.7,4.6,2.3,2.3,0,0,0,2.2,1.2h16.4V15.6l-1.4-7.9Zm-8.9,5.2a1.4,1.4,0,0,1-.8-1.1.52.52,0,0,1,.2-.4.76.76,0,0,1,.4-.2,1.54,1.54,0,0,1,1.1.6,5.45,5.45,0,0,1,1,1.7A6,6,0,0,1,98.4,13.2Z" fill="#274693"/><path d="M112.7,2.6A1.63,1.63,0,0,0,113,2c-.5.1-.8.2-.9.2a2.3,2.3,0,0,1-.9-.3c-.4-.2-.6-.4-.6-.5s.2-.2.3-.2a.9.9,0,0,1,.5-.1,2.94,2.94,0,0,1,.9.3c.1-.2.2-.3.2-.4s.1-.2.1-.4,0-.3-.1-.4a.52.52,0,0,0-.4-.2,2.24,2.24,0,0,0-1.6,1.1c-.1.1-.2.3-.3.4a.6.6,0,0,0-.1.4.76.76,0,0,0,.2.4,2.18,2.18,0,0,0,.5.4,2.39,2.39,0,0,0-.7.3,1.54,1.54,0,0,0-.4.6l2.8-.8C112.4,2.8,112.6,2.7,112.7,2.6Z" fill="#274693"/><path d="M112.3,8.2l-.8-4.5c-.5.9-.8,1.7-1.1,2.3a5.79,5.79,0,0,0-.4,1.3,8.38,8.38,0,0,0,.2,1,32.21,32.21,0,0,1,.6,3.5l.3,3a22,22,0,0,1,.1,2.3,15.73,15.73,0,0,1-.3,2.7l.8.3a12.67,12.67,0,0,0,1-2.5,6.65,6.65,0,0,0,.3-2.1,27.15,27.15,0,0,0-.1-2.8Q112.75,10.75,112.3,8.2Z" fill="#274693"/><polygon points="125.9 2.6 127.7 3.6 129.1 1.3 126.8 0.1 125.7 2 123.8 1.1 122.5 3.3 124.8 4.6 125.9 2.6" fill="#274693"/><path d="M137.1,10.1c-.6-.6-.9-.9-.9-1s.4-.4,1.1-.7c.5-.2,1.2-.4,2-.7a10.23,10.23,0,0,1,1.1-.3v-3c-1.1.4-1.8.7-2.2.8-.7.3-1.3.6-1.8.8s-1.1.6-1.6.9a2.67,2.67,0,0,0-1.1,1.3,6.82,6.82,0,0,0-.2,1.8,2.72,2.72,0,0,0,.6,1.7,16.26,16.26,0,0,0,1.4,1.4l.4-.5a17.1,17.1,0,0,1,1.4,1.1,4.5,4.5,0,0,1,1,.9l1,1h-9a.81.81,0,0,1-.8-.4,6.55,6.55,0,0,1-.8-2.5l-1.2-8a12.63,12.63,0,0,0-.8,1.8,7.38,7.38,0,0,0-.2,1.2v.4a.76.76,0,0,0,.1.4l-.7.4a5.65,5.65,0,0,0-1.4.9c-.5.4-.9.7-1.1.9a9.29,9.29,0,0,0-1.3,2.3,7.85,7.85,0,0,0-.9,2.2c0,.2.1.3.2.3a5,5,0,0,0,1.2.3l1.6.3a1.49,1.49,0,0,0,.6.1,1.91,1.91,0,0,0,1.2-.7c.3-.3.8-.8,1.4-1.5a8.71,8.71,0,0,0,.9,3.7,3,3,0,0,0,1.3,1.4,2.35,2.35,0,0,0,.8.2h11.1V15.7a16.47,16.47,0,0,0-2.3-3.3A21.9,21.9,0,0,0,137.1,10.1Zm-10.9,2.4a1.42,1.42,0,0,1-.6.2,2.77,2.77,0,0,1-.9-.1c-.3-.1-.4-.2-.4-.3s.1-.2.3-.4l.5-.5c.3-.2.7-.4,1.1-.7l.6-.3.3,1.5A6.78,6.78,0,0,1,126.2,12.5Z" fill="#274693"/><polygon points="164.7 3.9 162.3 2.7 161 5.3 163.4 6.5 164.7 3.9" fill="#274693"/><polygon points="164 8.5 165.8 9.5 167.2 6.9 164.8 5.6 163.8 7.7 161.9 6.7 160.6 9.2 162.9 10.5 164 8.5" fill="#274693"/><path d="M168.5,12.7c-.1-.4-.3-.9-.5-1.5l-1.1,1.5a1.73,1.73,0,0,0-.3.4.75.75,0,0,0-.1.5,2.3,2.3,0,0,0,.3.9,3,3,0,0,1,.3,1.1,5.27,5.27,0,0,1-1.2-.3,4.87,4.87,0,0,1-1.1-.4A17.63,17.63,0,0,0,165,13V11.8l-.5.4c-.2.2-.4.3-.5.4s-.2.3-.2.5a2.35,2.35,0,0,1-.8,2,4.09,4.09,0,0,1-2.2.4h-1.6a1.28,1.28,0,0,1-1-.4,1.5,1.5,0,0,1-.4-1.1V12.8a2.48,2.48,0,0,1,.1-.9l-.8-.1a3.77,3.77,0,0,1-1.2,3,3.29,3.29,0,0,1-2.2.8h-.9v-.1a6.69,6.69,0,0,0-.5-2.6,7.43,7.43,0,0,0-1.3-2.1l-.7,3.4a5,5,0,0,1,1.1,1.6,3,3,0,0,1,.4,1.3c0,.7-.7,1.7-2.1,2.9a21.25,21.25,0,0,1-2.4,1.9,4.07,4.07,0,0,1-1.8.5,3.65,3.65,0,0,1-1.5-.3,12,12,0,0,1-1.9-1l-.5.8c1.6,1.1,2.8,1.8,3.5,2.2a6,6,0,0,0,2.4.6,4,4,0,0,0,2.3-1,11,11,0,0,0,2.1-2.2,4,4,0,0,0,.9-2.1v-.3h.9a3.42,3.42,0,0,0,1.8-.4,4.5,4.5,0,0,0,1.6-1.5,4.89,4.89,0,0,0,.9,1.5,2,2,0,0,0,1.4.4h2.1a5.94,5.94,0,0,0,1.7-.2,3.35,3.35,0,0,0,1.3-.7,10.66,10.66,0,0,0,1.9.7,14.36,14.36,0,0,0,2.4.2V14.3A14.25,14.25,0,0,1,168.5,12.7Z" fill="#274693"/><path d="M53.5,33.85,31.4,62.75h7.7l3.2-1.5L60.6,53l8.5,9.8h6.5Zm-8.9,20.8,8.9-11,4,5.2Z" fill="#274693"/><polygon points="78.5 33.65 83.4 33.65 83.4 57.05 83.4 58.45 105.3 58.45 105.3 62.75 78.5 62.75 78.5 33.65" fill="#274693"/><path d="M148.9,33.75l-22.1,28.9h7.7l3.2-1.5,18.3-8.3,8.5,9.8H171Zm-9,20.8,8.9-11,4,5.2Z" fill="#274693"/><polygon points="112.2 33.85 138 33.85 138 39.05 117.1 39.05 117.1 45.95 132.2 45.95 132.2 50.15 117.3 50.15 117.3 62.75 112.2 62.75 112.2 33.85" fill="#274693"/><rect x="11.8" y="67.85" width="161.2" height="7" fill="#ca0205"/><path d="M28.5,43.55l6.7,2.5-3.4-5.8Zm1.9-.4L31.6,42l1.2,2.1Z" fill="#ca0205"/><path d="M42.5,52.85l-.2-.3.1.2-7.5-13.5V34l3.3-2.7-6.4-1.4-2,1.3-11.8.2-3.3-2.9H9.4v.4h0l-.6,8.8-4.2,6.8L0,48.75l8,2.9,6.8,4.9,5.2,7.6.1.1.2.2.3-.2-.1.1,14.1-11.6h7.7Zm-2.1-1.6-17-6.7,10.4-8.7v3.4a.75.75,0,0,0,.1.5ZM14.2,29.55l3,2.7a.91.91,0,0,0,.7.3h0l11.9-.3a1.42,1.42,0,0,0,.6-.2L32,31l3.9.8L21.8,43.45,11.2,29.55Zm-4.5,8.7c.1-.1.1-.3.2-.5l.5-7L20,43.35H6.4Zm5.9,17.8c-.1-.1-.2-.2-.2-.3l-6.8-4.9a.37.37,0,0,0-.3-.1l-6.4-2.4,3-2.8H20.8l-1.4,16.3Zm18.8-4.2a1.85,1.85,0,0,0-.7.2L21.1,62.45,22.5,46l14.9,5.9Z" fill="#ca0205"/><path d="M29.4,33.25l-10.5.8,4.2,5.4Zm-2.7,1.3L23.3,38,21,35.05Z" fill="#ca0205"/><path d="M11.6,35.25l-.2,3.6-1.9,2.9,6.9.9Zm.6,4.1a.76.76,0,0,0,.2-.5v-.4l1.9,2.8-3-.4Z" fill="#ca0205"/><path d="M13.7,51.35l3.3,3.7v-7.4L8.4,49Zm2.3,1-1.5-1.7c-.1-.1-.2-.2-.3-.2l-2.1-1,3.9-.6Z" fill="#ca0205"/><path d="M24.2,47.65l-1,9.6,8.4-5.9Zm.9,1.6,4.5,2.2-5.1,3.6Z" fill="#ca0205"/></svg>